Coordinates
version=1
nRows=38
nColumns=38
inDegrees=no

Units are S.I. units (second, meters, Newtons, ...)
If the header above contains a line with 'inDegrees', this indicates whether rotational values are in degrees (yes) or radians (no).

endheader
time	pelvis_tilt	pelvis_list	pelvis_rotation	pelvis_tx	pelvis_ty	pelvis_tz	hip_flexion_r	hip_adduction_r	hip_rotation_r	knee_angle_r	ankle_angle_r	subtalar_angle_r	mtp_angle_r	hip_flexion_l	hip_adduction_l	hip_rotation_l	knee_angle_l	ankle_angle_l	subtalar_angle_l	mtp_angle_l	lumbar_extension	lumbar_bending	lumbar_rotation	arm_flex_r	arm_add_r	arm_rot_r	elbow_flex_r	pro_sup_r	wrist_flex_r	wrist_dev_r	arm_flex_l	arm_add_l	arm_rot_l	elbow_flex_l	pro_sup_l	wrist_flex_l	wrist_dev_l
0.68	3.11009	1.27407	-1.37624	0.758567	0.105364	0.929862	0.134772	-0.0240202	-0.291204	0.284207	-0.152636	0	0	-0.523599	-0.0611639	-0.149319	0.270782	-0.148799	0	0	-0.304957	0.116442	0.113267	-0.126377	-0.73659	-0.0754356	1.62709	0.580383	0	0	0.557619	-0.496358	0.609625	1.12032	0.8057	0	0
0.69	3.1086	1.27349	-1.37427	0.759268	0.116937	0.928468	0.134542	-0.018667	-0.286747	0.318543	-0.147503	0	0	-0.523599	-0.0674555	-0.151485	0.293676	-0.145942	0	0	-0.303065	0.117849	0.113365	-0.128341	-0.736735	-0.0753505	1.6284	0.581133	0	0	0.555817	-0.497478	0.610353	1.12117	0.804858	0	0
0.7	3.10495	1.27201	-1.36955	0.760051	0.128696	0.927296	0.130354	-0.0108824	-0.281054	0.341299	-0.141522	0	0	-0.523599	-0.0754003	-0.153994	0.319573	-0.144944	0	0	-0.301672	0.120215	0.113302	-0.130631	-0.736796	-0.0752644	1.6295	0.581698	0	0	0.554474	-0.498818	0.612321	1.12159	0.803263	0	0
0.71	3.0972	1.26971	-1.36042	0.760847	0.140546	0.92642	0.123537	-0.00149976	-0.275295	0.349485	-0.144266	0	0	-0.523599	-0.085166	-0.155998	0.348881	-0.145896	0	0	-0.300956	0.124317	0.113207	-0.13283	-0.737025	-0.0749274	1.63027	0.582273	0	0	0.552635	-0.499483	0.613214	1.12141	0.80207	0	0
0.72	3.08606	1.26729	-1.34862	0.76164	0.152429	0.925784	0.117013	0.00809632	-0.270228	0.349682	-0.160824	0	0	-0.523599	-0.0956469	-0.156714	0.381914	-0.148766	0	0	-0.300327	0.129719	0.113859	-0.1348	-0.737981	-0.0740447	1.63066	0.582982	0	0	0.550082	-0.49932	0.613309	1.12062	0.800764	0	0
0.73	3.07511	1.26503	-1.33743	0.762585	0.164462	0.925321	0.110407	0.0171442	-0.267874	0.347679	-0.191377	0	0	-0.523599	-0.106274	-0.154931	0.419204	-0.15436	0	0	-0.299257	0.134775	0.115058	-0.136972	-0.738774	-0.0727888	1.63065	0.58368	0	0	0.547575	-0.499177	0.613689	1.11931	0.800922	0	0
0.74	3.0668	1.26219	-1.32884	0.763753	0.176684	0.925087	0.101813	0.0257512	-0.269006	0.34722	-0.224389	0	0	-0.523599	-0.117071	-0.149681	0.46137	-0.163812	0	0	-0.29838	0.138661	0.116234	-0.138977	-0.738549	-0.0710407	1.62983	0.584477	0	0	0.545628	-0.499817	0.615355	1.11762	0.802859	0	0
0.75	3.05876	1.25849	-1.32102	0.765105	0.188925	0.925174	0.0929642	0.0339508	-0.271286	0.352762	-0.252713	0	0	-0.51864	-0.128662	-0.143741	0.511206	-0.178272	0	0	-0.298533	0.142231	0.117772	-0.140248	-0.737577	-0.0687943	1.62814	0.585686	0	0	0.543411	-0.500445	0.616431	1.11624	0.803589	0	0
0.76	3.04728	1.25564	-1.31121	0.766493	0.201036	0.92544	0.0892336	0.041059	-0.270953	0.370591	-0.268773	0	0	-0.502142	-0.14105	-0.13772	0.570611	-0.196541	0	0	-0.297966	0.146598	0.120379	-0.140781	-0.736469	-0.0662822	1.62557	0.586911	0	0	0.54035	-0.500732	0.616233	1.11461	0.806439	0	0
0.77	3.03155	1.2525	-1.29847	0.767914	0.212828	0.925874	0.0889441	0.0481979	-0.268146	0.398421	-0.273835	0	0	-0.480837	-0.154447	-0.128534	0.637218	-0.220416	0	0	-0.298036	0.152394	0.124228	-0.140343	-0.735984	-0.0635213	1.62271	0.587529	0	0	0.536883	-0.499906	0.614475	1.11293	0.808201	0	0
0.78	3.01426	1.24871	-1.28444	0.769319	0.224418	0.926457	0.0879133	0.055342	-0.26683	0.427007	-0.271528	0	0	-0.455923	-0.168617	-0.117023	0.707891	-0.250352	0	0	-0.299162	0.159045	0.128536	-0.140107	-0.736383	-0.0611168	1.62079	0.58716	0	0	0.533704	-0.498948	0.612835	1.1117	0.809191	0	0
0.79	2.99782	1.24346	-1.27169	0.770548	0.235707	0.927212	0.0822297	0.0623701	-0.268242	0.448224	-0.267837	0	0	-0.429211	-0.18228	-0.105037	0.780083	-0.285919	0	0	-0.302706	0.166389	0.133732	-0.140565	-0.738889	-0.0596385	1.62092	0.58557	0	0	0.531795	-0.497975	0.612329	1.11125	0.808498	0	0
0.8	2.98353	1.23658	-1.26017	0.771593	0.246761	0.92812	0.0700767	0.0698292	-0.273073	0.459358	-0.26483	0	0	-0.401088	-0.195903	-0.0932	0.852729	-0.327213	0	0	-0.308681	0.174031	0.138891	-0.142323	-0.742895	-0.0596637	1.62299	0.582993	0	0	0.531605	-0.497605	0.613734	1.11183	0.806221	0	0
0.81	2.97244	1.22853	-1.25037	0.772522	0.257574	0.929048	0.0532939	0.0775348	-0.280243	0.464013	-0.262579	0	0	-0.372109	-0.208698	-0.0794779	0.924628	-0.359967	0	0	-0.316406	0.181169	0.143317	-0.144718	-0.747038	-0.0609205	1.62609	0.580579	0	0	0.533241	-0.498076	0.617062	1.11336	0.803042	0	0
0.82	2.9642	1.22041	-1.24247	0.773442	0.268148	0.929853	0.0345639	0.0855716	-0.286527	0.465277	-0.257842	0	0	-0.341968	-0.219786	-0.06381	0.995379	-0.384775	0	0	-0.324954	0.187299	0.147659	-0.148531	-0.751702	-0.0637552	1.63083	0.577004	0	0	0.536659	-0.499221	0.622416	1.11584	0.798354	0	0
0.83	2.96099	1.21287	-1.23911	0.774429	0.278451	0.93062	0.0155897	0.0928619	-0.29017	0.465652	-0.249974	0	0	-0.311612	-0.228381	-0.048136	1.06298	-0.402273	0	0	-0.333979	0.191059	0.15216	-0.15333	-0.756004	-0.068009	1.63629	0.572674	0	0	0.541381	-0.500772	0.628915	1.11904	0.792887	0	0
0.84	2.96154	1.20606	-1.23932	0.775452	0.288482	0.931517	-0.00334792	0.0993951	-0.291735	0.465497	-0.239929	0	0	-0.280974	-0.233714	-0.0321203	1.12749	-0.415273	0	0	-0.343191	0.19291	0.15674	-0.158509	-0.759058	-0.073559	1.64235	0.564689	0	0	0.546564	-0.502148	0.635117	1.12251	0.787192	0	0
0.85	2.96424	1.19988	-1.2411	0.77645	0.298271	0.93271	-0.0230333	0.10538	-0.293354	0.463069	-0.230654	0	0	-0.249955	-0.235569	-0.0146926	1.18911	-0.4194	0	0	-0.352015	0.193641	0.160445	-0.162475	-0.760803	-0.0783809	1.6468	0.557255	0	0	0.551222	-0.502792	0.639612	1.12527	0.783499	0	0
0.86	2.96731	1.19369	-1.24255	0.777377	0.307819	0.934242	-0.0443574	0.111096	-0.294916	0.456562	-0.223013	0	0	-0.219168	-0.235203	0.00312072	1.24673	-0.406008	0	0	-0.360869	0.194132	0.163376	-0.164994	-0.763408	-0.0816987	1.649	0.554423	0	0	0.555612	-0.502731	0.643171	1.12716	0.781007	0	0
0.87	2.97192	1.18728	-1.24478	0.778209	0.317237	0.93611	-0.0682296	0.116624	-0.295981	0.445282	-0.21772	0	0	-0.19027	-0.232611	0.0213396	1.29822	-0.371517	0	0	-0.369827	0.194073	0.164932	-0.165932	-0.764266	-0.0841316	1.64943	0.553081	0	0	0.559651	-0.502609	0.646398	1.12816	0.778731	0	0
0.88	2.97836	1.18087	-1.24904	0.779077	0.326684	0.938223	-0.0939606	0.121547	-0.296534	0.430979	-0.215227	0	0	-0.164033	-0.227897	0.0379533	1.34357	-0.33023	0	0	-0.378499	0.192916	0.165813	-0.165587	-0.763576	-0.0854216	1.64851	0.552277	0	0	0.563171	-0.502911	0.649778	1.12849	0.776356	0	0
0.89	2.98632	1.17434	-1.25618	0.780041	0.336193	0.940514	-0.121133	0.125594	-0.296577	0.415075	-0.214278	0	0	-0.140552	-0.221619	0.0504861	1.38161	-0.292615	0	0	-0.387266	0.190682	0.167398	-0.164977	-0.762625	-0.0861252	1.64727	0.551968	0	0	0.566235	-0.503329	0.653167	1.12826	0.774187	0	0
0.9	2.99517	1.16869	-1.26637	0.7812	0.345802	0.942855	-0.14773	0.128315	-0.29661	0.3994	-0.214259	0	0	-0.118503	-0.213362	0.0595142	1.41212	-0.262665	0	0	-0.395065	0.186932	0.170507	-0.164647	-0.761409	-0.0865888	1.64587	0.552679	0	0	0.569	-0.503952	0.657048	1.12747	0.773153	0	0
0.91	3.00413	1.16491	-1.27937	0.782606	0.355477	0.945116	-0.172221	0.129711	-0.296445	0.384131	-0.214729	0	0	-0.0962387	-0.204003	0.0644456	1.43541	-0.241983	0	0	-0.4011	0.181507	0.175438	-0.164224	-0.759686	-0.0866452	1.64435	0.553606	0	0	0.570874	-0.504675	0.660385	1.12654	0.772774	0	0
0.92	3.01407	1.16174	-1.29531	0.7841	0.365025	0.947277	-0.195174	0.129436	-0.297011	0.370655	-0.215652	0	0	-0.0750182	-0.195302	0.0641956	1.45184	-0.2248	0	0	-0.40714	0.174818	0.181875	-0.163768	-0.758225	-0.08692	1.6434	0.554068	0	0	0.572434	-0.505005	0.662819	1.12563	0.771358	0	0
0.93	3.02461	1.1592	-1.31341	0.785657	0.374491	0.949325	-0.216214	0.127584	-0.298577	0.359769	-0.21651	0	0	-0.0547904	-0.186693	0.0601652	1.46176	-0.21044	0	0	-0.412908	0.167237	0.189424	-0.163235	-0.757239	-0.0869717	1.6428	0.554109	0	0	0.573661	-0.505233	0.664535	1.12461	0.769497	0	0
0.94	3.03536	1.15715	-1.33185	0.787295	0.383996	0.951226	-0.236509	0.125325	-0.300687	0.348769	-0.21737	0	0	-0.0353524	-0.178263	0.054153	1.4661	-0.199225	0	0	-0.417855	0.159093	0.1969	-0.162831	-0.756174	-0.0866797	1.64221	0.553883	0	0	0.574592	-0.505794	0.665948	1.12385	0.767956	0	0
0.95	3.04506	1.15506	-1.34998	0.788887	0.393459	0.952925	-0.255875	0.122767	-0.300348	0.338627	-0.218545	0	0	-0.0172385	-0.170315	0.0456023	1.46546	-0.189508	0	0	-0.422648	0.151319	0.204981	-0.162594	-0.756282	-0.0861393	1.64228	0.55312	0	0	0.575144	-0.506125	0.666548	1.12355	0.766785	0	0
0.96	3.05372	1.1526	-1.36748	0.790385	0.402871	0.954423	-0.27492	0.120269	-0.297597	0.329453	-0.219364	0	0	-0.00076116	-0.164341	0.033564	1.45993	-0.179164	0	0	-0.427819	0.144114	0.213489	-0.162605	-0.757609	-0.0856646	1.64333	0.551593	0	0	0.575103	-0.506372	0.665801	1.12432	0.76633	0	0
0.97	3.06213	1.14956	-1.38425	0.791821	0.412315	0.955766	-0.294452	0.117883	-0.295047	0.320399	-0.219609	0	0	0.0136949	-0.160751	0.018488	1.44871	-0.170064	0	0	-0.433293	0.137151	0.221489	-0.162679	-0.759161	-0.0851996	1.64481	0.54962	0	0	0.574589	-0.507061	0.664138	1.12623	0.766337	0	0
0.98	3.06867	1.14588	-1.39953	0.793166	0.42167	0.956911	-0.313807	0.115723	-0.29228	0.312728	-0.218985	0	0	0.0260607	-0.158816	0.00186756	1.43183	-0.163524	0	0	-0.439373	0.131078	0.229901	-0.162652	-0.761588	-0.0847863	1.64681	0.547021	0	0	0.573933	-0.507755	0.662266	1.12873	0.767079	0	0
0.99	3.07158	1.14185	-1.41191	0.794513	0.431006	0.957783	-0.332578	0.114688	-0.288646	0.306116	-0.217667	0	0	0.0376527	-0.16134	-0.0196325	1.41052	-0.161091	0	0	-0.445386	0.126473	0.239405	-0.162883	-0.764788	-0.0845742	1.64918	0.543762	0	0	0.573682	-0.508238	0.661116	1.13111	0.767112	0	0
1	3.07068	1.13544	-1.42084	0.795895	0.440568	0.958454	-0.354333	0.1158	-0.285451	0.298221	-0.216411	0	0	0.0487909	-0.180822	-0.0677168	1.38757	-0.171752	0	0	-0.453006	0.123699	0.25044	-0.165186	-0.768973	-0.0858443	1.65299	0.539398	0	0	0.574561	-0.508984	0.662138	1.13404	0.765314	0	0
1.01	3.07069	1.12964	-1.42978	0.797057	0.449953	0.959051	-0.375072	0.116151	-0.28253	0.290956	-0.215219	0	0	0.0572277	-0.196925	-0.111728	1.35782	-0.186162	0	0	-0.460308	0.120911	0.260722	-0.167618	-0.772924	-0.0878576	1.65663	0.535614	0	0	0.575974	-0.509165	0.663451	1.1363	0.763042	0	0
1.02	3.07255	1.12616	-1.43814	0.798027	0.459233	0.959489	-0.392951	0.115908	-0.280666	0.284988	-0.213112	0	0	0.0639295	-0.201358	-0.135888	1.32123	-0.195574	0	0	-0.465203	0.117688	0.268164	-0.169077	-0.775338	-0.0895223	1.65918	0.533035	0	0	0.57726	-0.509282	0.664395	1.1376	0.762008	0	0
1.03	3.07429	1.1227	-1.44502	0.798852	0.468446	0.959818	-0.410711	0.115766	-0.278298	0.278987	-0.211109	0	0	0.0682629	-0.203058	-0.156089	1.27872	-0.205957	0	0	-0.47011	0.115013	0.274469	-0.170506	-0.777527	-0.0914381	1.66182	0.530667	0	0	0.57913	-0.509341	0.665955	1.13857	0.761395	0	0
1.04	3.07525	1.12003	-1.45	0.799517	0.477578	0.960024	-0.427834	0.115995	-0.274977	0.271766	-0.209535	0	0	0.0715378	-0.203363	-0.17393	1.23071	-0.217704	0	0	-0.474229	0.113146	0.279559	-0.171415	-0.779244	-0.0931667	1.664	0.52874	0	0	0.580873	-0.509195	0.66735	1.13899	0.760328	0	0
1.05	3.07508	1.11875	-1.45281	0.800013	0.486693	0.960055	-0.44329	0.116562	-0.272702	0.264997	-0.207858	0	0	0.0745844	-0.203171	-0.189942	1.17721	-0.231642	0	0	-0.476738	0.11217	0.283295	-0.171623	-0.78047	-0.0943295	1.66543	0.527973	0	0	0.581776	-0.508745	0.667664	1.13881	0.7596	0	0
